<?xml version="1.0" encoding="UTF-8" standalone="no"?>
<svg
   xmlns:dc="http://purl.org/dc/elements/1.1/"
   xmlns:cc="http://creativecommons.org/ns#"
   xmlns:rdf="http://www.w3.org/1999/02/22-rdf-syntax-ns#"
   xmlns:svg="http://www.w3.org/2000/svg"
   xmlns="http://www.w3.org/2000/svg"
   viewBox="0 0 682.66669 682.66669"
   height="682.66669"
   width="682.66669"
   xml:space="preserve"
   id="svg2"
   version="1.1"><metadata
     id="metadata8"><rdf:RDF><cc:Work
         rdf:about=""><dc:format>image/svg+xml</dc:format><dc:type
           rdf:resource="http://purl.org/dc/dcmitype/StillImage" /></cc:Work></rdf:RDF></metadata><defs
     id="defs6"><clipPath
       id="clipPath20"
       clipPathUnits="userSpaceOnUse"><path
         id="path18"
         d="M 0,512 H 512 V 0 H 0 Z" /></clipPath><clipPath
       id="clipPath28"
       clipPathUnits="userSpaceOnUse"><path
         id="path26"
         d="M 35.5807,313.74 H 212.581 v -177 H 35.5807 Z" /></clipPath><clipPath
       id="clipPath44"
       clipPathUnits="userSpaceOnUse"><path
         id="path42"
         d="m 140.227,375.519 h 199 v -199 h -199 z" /></clipPath><clipPath
       id="clipPath60"
       clipPathUnits="userSpaceOnUse"><path
         id="path58"
         d="M 296.149,285.064 H 422.191 V 159.022 H 296.149 Z" /></clipPath><clipPath
       id="clipPath76"
       clipPathUnits="userSpaceOnUse"><path
         id="path74"
         d="M 65.4193,241.733 H 476.419 V 136.481 H 65.4193 Z" /></clipPath></defs><g
     transform="matrix(1.3333333,0,0,-1.3333333,0,682.66667)"
     id="g10"><path
       id="path12"
       style="fill:#512e70;fill-opacity:1;fill-rule:nonzero;stroke:none"
       d="M 0,0 H 512 V 512 H 0 Z" /><g
       id="g14"><g
         clip-path="url(#clipPath20)"
         id="g16"><g
           id="g22"><g
             id="g24" /><g
             id="g36"><g
               style="opacity:0.44999701"
               id="g34"
               clip-path="url(#clipPath28)"><g
                 id="g32"
                 transform="translate(212.5807,225.2403)"><path
                   id="path30"
                   style="fill:#00d1fe;fill-opacity:1;fill-rule:nonzero;stroke:none"
                   d="m 0,0 c 0,-48.877 -39.623,-88.5 -88.5,-88.5 -48.877,0 -88.5,39.623 -88.5,88.5 0,48.877 39.623,88.5 88.5,88.5 C -39.623,88.5 0,48.877 0,0" /></g></g></g></g><g
           id="g38"><g
             id="g40" /><g
             id="g52"><g
               style="opacity:0.44999701"
               id="g50"
               clip-path="url(#clipPath44)"><g
                 id="g48"
                 transform="translate(339.2273,276.0187)"><path
                   id="path46"
                   style="fill:#00ccfe;fill-opacity:1;fill-rule:nonzero;stroke:none"
                   d="m 0,0 c 0,-54.952 -44.548,-99.5 -99.5,-99.5 -54.952,0 -99.5,44.548 -99.5,99.5 0,54.952 44.548,99.5 99.5,99.5 C -44.548,99.5 0,54.952 0,0" /></g></g></g></g><g
           id="g54"><g
             id="g56" /><g
             id="g68"><g
               style="opacity:0.44999701"
               id="g66"
               clip-path="url(#clipPath60)"><g
                 id="g64"
                 transform="translate(422.1911,222.0427)"><path
                   id="path62"
                   style="fill:#00ccfe;fill-opacity:1;fill-rule:nonzero;stroke:none"
                   d="m 0,0 c 0,-34.805 -28.215,-63.021 -63.021,-63.021 -34.805,0 -63.021,28.216 -63.021,63.021 0,34.805 28.216,63.021 63.021,63.021 C -28.215,63.021 0,34.805 0,0" /></g></g></g></g><g
           id="g70"><g
             id="g72" /><g
             id="g84"><g
               style="opacity:0.44999701"
               id="g82"
               clip-path="url(#clipPath76)"><g
                 id="g80"
                 transform="translate(423.7937,136.4813)"><path
                   id="path78"
                   style="fill:#00ccfe;fill-opacity:1;fill-rule:nonzero;stroke:none"
                   d="m 0,0 h -305.749 c -28.944,0 -52.625,23.682 -52.625,52.626 v 0 c 0,28.944 23.681,52.625 52.625,52.625 H 0 c 28.944,0 52.626,-23.681 52.626,-52.625 v 0 C 52.626,23.682 28.944,0 0,0" /></g></g></g></g></g></g></g></svg>